<?xml version="1.0" encoding="UTF-8" standalone="no"?>
<!-- Created with Inkscape (http://www.inkscape.org/) -->

<svg
   width="1024"
   height="1024"
   viewBox="0 0 1024 1024"
   version="1.1"
   id="SVGRoot"
   xmlns="http://www.w3.org/2000/svg"
   xmlns:svg="http://www.w3.org/2000/svg">
  <defs
     id="defs16" />
  <g
     id="layer4"
     style="display:inline">
    <rect
       style="fill:#ffffff;fill-opacity:1;stroke:#2c3c5b;stroke-width:0"
       id="rect1605"
       width="1024"
       height="1024"
       x="5.423729e-07"
       y="6.2135922e-07" />
  </g>
  <g
     id="g2686"
     style="display:none">
    <rect
       style="fill:#ebebeb;fill-opacity:1;stroke:#2c3c5b;stroke-width:0"
       id="rect2684"
       width="944"
       height="824"
       x="40"
       y="100" />
  </g>
  <g
     id="layer3">
    <path
       style="fill:#000000;fill-opacity:0;stroke:#2c3c5b;stroke-width:21.17;stroke-dasharray:none;stroke-opacity:1"
       id="path11363"
       d="M 9.3429416e-6,-348.68362 301.96887,174.34182 l -603.93775,-2e-5 z"
       transform="matrix(-1.0927938,0,0,1.0814296,512.02473,561.97066)" />
    <circle
       style="fill:#000000;fill-opacity:0;stroke:#2c3c5b;stroke-width:20;stroke-dasharray:none;stroke-opacity:1"
       id="path207"
       r="256"
       cy="552"
       cx="512" />
  </g>
  <g
     id="layer2"
     style="display:inline">
    <rect
       style="fill:#ffffff;fill-opacity:1;stroke:#2c3c5b;stroke-width:0"
       id="rect3231"
       width="918.573"
       height="115"
       x="52"
       y="483" />
  </g>
  <g
     id="g2682"
     style="display:none">
    <rect
       style="fill:#ebebeb;fill-opacity:1;stroke:#2c3c5b;stroke-width:0"
       id="rect2680"
       width="918.573"
       height="115"
       x="52"
       y="483" />
  </g>
  <g
     id="layer1">
    <g
       aria-label="MeetKunde"
       transform="scale(0.95528094,1.0468125)"
       id="text6735"
       style="font-size:197.244px;font-family:Audiowide;-inkscape-font-specification:Audiowide;text-align:center;text-anchor:middle;fill:#0ac5a8;stroke:#2c3c5b;stroke-width:0">
      <g
         id="path301"
         style="fill:#0ac5a8;fill-opacity:1">
        <path
           style="color:#000000;-inkscape-font-specification:'Quicksand Semi-Bold';fill:#0ac5a8;fill-opacity:1;stroke:none;-inkscape-stroke:none"
           d="m 25.221779,430.16457 q 2.366929,0 4.931101,1.18346 2.564172,1.18347 3.94488,3.35315 l 50.099976,76.33343 -8.481492,-0.39449 51.086196,-75.93894 q 3.15591,-4.53661 8.08701,-4.53661 3.94488,0 6.90354,2.95866 3.1559,2.76142 3.1559,7.10079 v 118.14915 q 0,4.33937 -2.76142,7.29803 -2.76141,2.76142 -7.29802,2.76142 -4.73386,0 -7.69252,-2.76142 -2.76142,-2.95866 -2.76142,-7.29803 V 458.37046 l 6.31181,1.38071 -43.393679,66.07674 q -1.380708,1.7752 -3.550393,3.15591 -2.169684,1.18346 -4.536612,0.98622 -2.169684,0.19724 -4.536612,-0.98622 -2.169684,-1.38071 -3.550392,-3.15591 l -41.815728,-65.09052 4.733856,-7.88976 v 105.52554 q 0,4.33937 -2.761416,7.29803 -2.564172,2.76142 -6.903541,2.76142 -4.142124,0 -6.90354,-2.76142 -2.564172,-2.95866 -2.564172,-7.29803 V 440.22402 q 0,-4.14213 2.95866,-7.10079 3.155904,-2.95866 7.298028,-2.95866 z"
           id="path322" />
        <path
           style="color:#000000;-inkscape-font-specification:'Quicksand Semi-Bold';fill:#0ac5a8;fill-opacity:1;stroke:none;-inkscape-stroke:none"
           d="m 25.221779,430.16457 c 1.577951,0 3.221655,0.39449 4.931101,1.18346 1.709446,0.78898 3.024409,1.9067 3.94488,3.35315 l 50.099976,76.33343 -8.481492,-0.39449 51.086196,-75.93894 c 2.10394,-3.0244 4.79961,-4.53661 8.08701,-4.53661 2.62992,0 4.9311,0.98622 6.90354,2.95866 2.10393,1.84094 3.1559,4.20788 3.1559,7.10079 v 118.14915 c 0,2.89291 -0.92048,5.32559 -2.76142,7.29803 -1.84094,1.84094 -4.27362,2.76142 -7.29802,2.76142 -3.1559,0 -5.72008,-0.92048 -7.69252,-2.76142 -1.84094,-1.97244 -2.76142,-4.40512 -2.76142,-7.29803 V 458.37046 l 6.31181,1.38071 -43.393679,66.07674 c -0.920471,1.18347 -2.103938,2.23544 -3.550393,3.15591 -1.446455,0.78897 -2.958662,1.11771 -4.536612,0.98622 -1.446455,0.13149 -2.958662,-0.19725 -4.536612,-0.98622 -1.446455,-0.92047 -2.629921,-1.97244 -3.550392,-3.15591 l -41.815728,-65.09052 4.733856,-7.88976 v 105.52554 c 0,2.89291 -0.920474,5.32559 -2.761416,7.29803 -1.709446,1.84094 -4.010631,2.76142 -6.903541,2.76142 -2.761413,0 -5.062598,-0.92048 -6.90354,-2.76142 -1.709446,-1.97244 -2.564172,-4.40512 -2.564172,-7.29803 V 440.22402 c 0,-2.76142 0.986222,-5.12835 2.95866,-7.10079 2.103934,-1.97244 4.536615,-2.95866 7.298028,-2.95866 z"
           id="path324" />
      </g>
      <g
         id="path303"
         style="fill:#0ac5a8;fill-opacity:1">
        <path
           style="color:#000000;-inkscape-font-specification:'Quicksand Semi-Bold';fill:#0ac5a8;fill-opacity:1;stroke:none;-inkscape-stroke:none"
           d="m 223.25486,570.40506 q -16.37125,0 -28.40313,-6.7063 -12.03189,-6.90354 -18.73818,-18.73818 -6.50906,-12.03188 -6.50906,-27.41692 0,-17.35747 6.90354,-29.5866 7.10079,-12.42637 18.3437,-18.93542 11.2429,-6.7063 23.86652,-6.7063 9.66496,0 18.34369,3.94488 8.67874,3.74764 15.38503,10.65118 6.90354,6.7063 10.84842,15.97676 3.94488,9.07323 4.14213,19.92165 -0.19725,3.94488 -3.15591,6.50905 -2.95866,2.56417 -6.90354,2.56417 h -76.72791 l -4.73386,-16.76574 h 74.16375 l -3.74764,3.55039 v -4.9311 q -0.39449,-6.90354 -4.53661,-12.03188 -4.14213,-5.32559 -10.25669,-8.087 -6.11456,-2.95866 -12.82086,-2.95866 -5.91732,0 -11.44015,1.97244 -5.32559,1.77519 -9.66496,5.91732 -4.14212,4.14212 -6.70629,11.04566 -2.36693,6.7063 -2.36693,16.76574 0,10.84842 4.53661,18.93542 4.53661,8.08701 12.22913,12.62362 7.69251,4.33937 16.96298,4.33937 7.29803,0 12.03189,-1.38071 4.73385,-1.57795 7.88976,-3.74764 3.1559,-2.16968 5.52283,-4.14212 2.95866,-1.7752 5.91732,-1.7752 3.55039,0 5.91732,2.56418 2.36693,2.36692 2.36693,5.72007 0,4.33937 -4.33937,7.88976 -5.32559,5.12835 -14.7933,9.07323 -9.27047,3.94488 -19.52716,3.94488 z"
           id="path328" />
        <path
           style="color:#000000;-inkscape-font-specification:'Quicksand Semi-Bold';fill:#0ac5a8;fill-opacity:1;stroke:none;-inkscape-stroke:none"
           d="m 223.25486,570.40506 c -10.91416,0 -20.38188,-2.23544 -28.40313,-6.7063 -8.02125,-4.60236 -14.26732,-10.84843 -18.73818,-18.73818 -4.33937,-8.02125 -6.50906,-17.16024 -6.50906,-27.41692 0,-11.57164 2.30118,-21.43385 6.90354,-29.5866 4.73386,-8.28424 10.84843,-14.59606 18.3437,-18.93542 7.49526,-4.47086 15.45078,-6.7063 23.86652,-6.7063 6.4433,0 12.55788,1.31496 18.34369,3.94488 5.78582,2.49842 10.91417,6.04882 15.38503,10.65118 4.60236,4.47086 8.2185,9.79646 10.84842,15.97676 2.62992,6.04881 4.01063,12.68938 4.14213,19.92165 -0.1315,2.62992 -1.18347,4.79961 -3.15591,6.50905 -1.97244,1.70944 -4.27362,2.56417 -6.90354,2.56417 h -76.72791 l -4.73386,-16.76574 h 74.16375 l -3.74764,3.55039 v -4.9311 c -0.26299,-4.60236 -1.7752,-8.61299 -4.53661,-12.03188 -2.76142,-3.55039 -6.18032,-6.24606 -10.25669,-8.087 -4.07637,-1.97244 -8.35,-2.95866 -12.82086,-2.95866 -3.94488,0 -7.75827,0.65748 -11.44015,1.97244 -3.55039,1.18346 -6.77205,3.1559 -9.66496,5.91732 -2.76141,2.76141 -4.99685,6.4433 -6.70629,11.04566 -1.57795,4.47086 -2.36693,10.05945 -2.36693,16.76574 0,7.23227 1.51221,13.54409 4.53661,18.93542 3.0244,5.39133 7.10079,9.59922 12.22913,12.62362 5.12833,2.89291 10.78267,4.33937 16.96298,4.33937 4.86535,0 8.87599,-0.46024 12.03189,-1.38071 3.1559,-1.05197 5.78582,-2.30118 7.88976,-3.74764 2.10393,-1.44645 3.94488,-2.82716 5.52283,-4.14212 1.97244,-1.18347 3.94488,-1.7752 5.91732,-1.7752 2.36692,0 4.33937,0.85473 5.91732,2.56418 1.57795,1.57795 2.36693,3.48464 2.36693,5.72007 0,2.89291 -1.44646,5.52284 -4.33937,7.88976 -3.55039,3.4189 -8.4815,6.44331 -14.7933,9.07323 -6.18031,2.62992 -12.68937,3.94488 -19.52716,3.94488 z"
           id="path330" />
      </g>
      <g
         id="path305"
         style="fill:#0ac5a8;fill-opacity:1">
        <path
           style="color:#000000;-inkscape-font-specification:'Quicksand Semi-Bold';fill:#0ac5a8;fill-opacity:1;stroke:none;-inkscape-stroke:none"
           d="m 338.05104,570.40506 q -16.37126,0 -28.40314,-6.7063 -12.03189,-6.90354 -18.73818,-18.73818 -6.50905,-12.03188 -6.50905,-27.41692 0,-17.35747 6.90354,-29.5866 7.10078,-12.42637 18.34369,-18.93542 11.24291,-6.7063 23.86652,-6.7063 9.66496,0 18.3437,3.94488 8.67873,3.74764 15.38503,10.65118 6.90354,6.7063 10.84842,15.97676 3.94488,9.07323 4.14212,19.92165 -0.19724,3.94488 -3.1559,6.50905 -2.95866,2.56417 -6.90354,2.56417 h -76.72792 l -4.73386,-16.76574 h 74.16375 l -3.74764,3.55039 v -4.9311 q -0.39448,-6.90354 -4.53661,-12.03188 -4.14212,-5.32559 -10.25669,-8.087 -6.11456,-2.95866 -12.82086,-2.95866 -5.91732,0 -11.44015,1.97244 -5.32559,1.77519 -9.66496,5.91732 -4.14212,4.14212 -6.70629,11.04566 -2.36693,6.7063 -2.36693,16.76574 0,10.84842 4.53661,18.93542 4.53661,8.08701 12.22913,12.62362 7.69252,4.33937 16.96299,4.33937 7.29802,0 12.03188,-1.38071 4.73386,-1.57795 7.88976,-3.74764 3.1559,-2.16968 5.52283,-4.14212 2.95866,-1.7752 5.91732,-1.7752 3.55039,0 5.91732,2.56418 2.36693,2.36692 2.36693,5.72007 0,4.33937 -4.33937,7.88976 -5.32559,5.12835 -14.7933,9.07323 -9.27047,3.94488 -19.52715,3.94488 z"
           id="path334" />
        <path
           style="color:#000000;-inkscape-font-specification:'Quicksand Semi-Bold';fill:#0ac5a8;fill-opacity:1;stroke:none;-inkscape-stroke:none"
           d="m 338.05104,570.40506 c -10.91416,0 -20.38189,-2.23544 -28.40314,-6.7063 -8.02125,-4.60236 -14.26732,-10.84843 -18.73818,-18.73818 -4.33936,-8.02125 -6.50905,-17.16024 -6.50905,-27.41692 0,-11.57164 2.30118,-21.43385 6.90354,-29.5866 4.73385,-8.28424 10.84842,-14.59606 18.34369,-18.93542 7.49527,-4.47086 15.45079,-6.7063 23.86652,-6.7063 6.4433,0 12.55788,1.31496 18.3437,3.94488 5.78581,2.49842 10.91417,6.04882 15.38503,10.65118 4.60236,4.47086 8.2185,9.79646 10.84842,15.97676 2.62992,6.04881 4.01063,12.68938 4.14212,19.92165 -0.13149,2.62992 -1.18346,4.79961 -3.1559,6.50905 -1.97244,1.70944 -4.27362,2.56417 -6.90354,2.56417 h -76.72792 l -4.73386,-16.76574 h 74.16375 l -3.74764,3.55039 v -4.9311 c -0.26299,-4.60236 -1.77519,-8.61299 -4.53661,-12.03188 -2.76141,-3.55039 -6.18031,-6.24606 -10.25669,-8.087 -4.07637,-1.97244 -8.35,-2.95866 -12.82086,-2.95866 -3.94488,0 -7.75827,0.65748 -11.44015,1.97244 -3.55039,1.18346 -6.77205,3.1559 -9.66496,5.91732 -2.76141,2.76141 -4.99685,6.4433 -6.70629,11.04566 -1.57795,4.47086 -2.36693,10.05945 -2.36693,16.76574 0,7.23227 1.51221,13.54409 4.53661,18.93542 3.0244,5.39133 7.10079,9.59922 12.22913,12.62362 5.12834,2.89291 10.78268,4.33937 16.96299,4.33937 4.86534,0 8.87598,-0.46024 12.03188,-1.38071 3.1559,-1.05197 5.78583,-2.30118 7.88976,-3.74764 2.10393,-1.44645 3.94488,-2.82716 5.52283,-4.14212 1.97244,-1.18347 3.94488,-1.7752 5.91732,-1.7752 2.36692,0 4.33937,0.85473 5.91732,2.56418 1.57795,1.57795 2.36693,3.48464 2.36693,5.72007 0,2.89291 -1.44646,5.52284 -4.33937,7.88976 -3.55039,3.4189 -8.4815,6.44331 -14.7933,9.07323 -6.18031,2.62992 -12.68937,3.94488 -19.52715,3.94488 z"
           id="path336" />
      </g>
      <g
         id="path307"
         style="fill:#0ac5a8;fill-opacity:1">
        <path
           style="color:#000000;-inkscape-font-specification:'Quicksand Semi-Bold';fill:#0ac5a8;fill-opacity:1;stroke:none;-inkscape-stroke:none"
           d="m 403.14169,465.86574 h 46.35234 q 3.94488,0 6.50905,2.76141 2.76142,2.56417 2.76142,6.50905 0,3.74764 -2.76142,6.31181 -2.56417,2.56417 -6.50905,2.56417 h -46.35234 q -3.94488,0 -6.7063,-2.56417 -2.56417,-2.76141 -2.56417,-6.50905 0,-3.94488 2.56417,-6.50905 2.76142,-2.56417 6.7063,-2.56417 z m 20.71062,-25.64172 q 4.33937,0 7.10078,2.95866 2.76142,2.76141 2.76142,7.10078 v 91.52122 q 0,3.55039 1.18346,5.72007 1.18347,2.16969 3.15591,2.95866 2.16968,0.78898 4.33937,0.78898 2.16968,0 3.74763,-0.78898 1.7752,-0.78897 4.14213,-0.78897 2.36692,0 4.33936,2.16968 1.97244,2.16968 1.97244,5.91732 0,4.73386 -5.12834,7.69252 -5.12834,2.95866 -11.04566,2.95866 -3.35315,0 -7.88976,-0.59173 -4.53662,-0.59174 -8.87598,-2.95866 -4.14213,-2.36693 -6.90354,-7.49528 -2.76142,-5.32559 -2.76142,-14.7933 v -92.31019 q 0,-4.33937 2.76142,-7.10078 2.95866,-2.95866 7.10078,-2.95866 z"
           id="path340" />
        <path
           style="color:#000000;-inkscape-font-specification:'Quicksand Semi-Bold';fill:#0ac5a8;fill-opacity:1;stroke:none;-inkscape-stroke:none"
           d="m 403.14169,465.86574 h 46.35234 c 2.62992,0 4.79961,0.92047 6.50905,2.76141 1.84094,1.70944 2.76142,3.87913 2.76142,6.50905 0,2.49842 -0.92048,4.60237 -2.76142,6.31181 -1.70944,1.70944 -3.87913,2.56417 -6.50905,2.56417 h -46.35234 c -2.62992,0 -4.86536,-0.85473 -6.7063,-2.56417 -1.70944,-1.84094 -2.56417,-4.01063 -2.56417,-6.50905 0,-2.62992 0.85473,-4.79961 2.56417,-6.50905 1.84094,-1.70944 4.07638,-2.56417 6.7063,-2.56417 z m 20.71062,-25.64172 c 2.89291,0 5.25984,0.98622 7.10078,2.95866 1.84094,1.84094 2.76142,4.20787 2.76142,7.10078 v 91.52122 c 0,2.36692 0.39449,4.27362 1.18346,5.72007 0.78898,1.44646 1.84095,2.43268 3.15591,2.95866 1.44645,0.52599 2.89291,0.78898 4.33937,0.78898 1.44645,0 2.69566,-0.26299 3.74763,-0.78898 1.18347,-0.52598 2.56418,-0.78897 4.14213,-0.78897 1.57795,0 3.0244,0.72323 4.33936,2.16968 1.31496,1.44645 1.97244,3.4189 1.97244,5.91732 0,3.1559 -1.70945,5.72008 -5.12834,7.69252 -3.41889,1.97244 -7.10078,2.95866 -11.04566,2.95866 -2.23543,0 -4.86536,-0.19724 -7.88976,-0.59173 -3.02441,-0.39449 -5.98308,-1.38071 -8.87598,-2.95866 -2.76142,-1.57795 -5.0626,-4.07638 -6.90354,-7.49528 -1.84094,-3.55039 -2.76142,-8.4815 -2.76142,-14.7933 v -92.31019 c 0,-2.89291 0.92048,-5.25984 2.76142,-7.10078 1.97244,-1.97244 4.33937,-2.95866 7.10078,-2.95866 z"
           id="path342" />
      </g>
      <g
         id="path309"
         style="fill:#0ac5a8;fill-opacity:1">
        <path
           style="color:#000000;-inkscape-font-specification:'Quicksand Semi-Bold';fill:#0ac5a8;fill-opacity:1;stroke:none;-inkscape-stroke:none"
           d="m 579.08326,568.62986 q -4.53661,0 -7.29803,-3.74763 l -49.11375,-63.31533 15.18779,-15.38503 50.09997,65.28776 q 2.36693,3.15591 2.36693,6.90354 0,4.73386 -3.55039,7.49528 -3.55039,2.76141 -7.69252,2.76141 z m 0.98622,-138.85978 q 3.94488,0 6.50906,3.15591 2.56417,3.1559 2.56417,6.50905 0,3.55039 -2.95866,6.50905 l -85.01217,80.6728 -1.18346,-23.27479 72.1913,-69.82438 q 3.5504,-3.74764 7.88976,-3.74764 z m -86.9846,138.66254 q -4.53661,0 -7.49527,-2.76142 -2.76142,-2.95866 -2.76142,-7.29803 V 440.42126 q 0,-4.33937 2.95866,-7.10079 2.95866,-2.95866 7.69252,-2.95866 4.53661,0 7.29802,2.95866 2.76142,2.76142 2.76142,7.10079 v 117.95191 q -0.19724,4.33937 -2.95866,7.29803 -2.76142,2.76142 -7.49527,2.76142 z"
           id="path346" />
        <path
           style="color:#000000;-inkscape-font-specification:'Quicksand Semi-Bold';fill:#0ac5a8;fill-opacity:1;stroke:none;-inkscape-stroke:none"
           d="m 579.08326,568.62986 c -3.0244,0 -5.45709,-1.24921 -7.29803,-3.74763 l -49.11375,-63.31533 15.18779,-15.38503 50.09997,65.28776 c 1.57795,2.10394 2.36693,4.40512 2.36693,6.90354 0,3.1559 -1.18347,5.65434 -3.55039,7.49528 -2.36692,1.84094 -4.9311,2.76141 -7.69252,2.76141 z m 0.98622,-138.85978 c 2.62992,0 4.79961,1.05197 6.50906,3.15591 1.70944,2.10393 2.56417,4.27362 2.56417,6.50905 0,2.36692 -0.98622,4.53661 -2.95866,6.50905 l -85.01217,80.6728 -1.18346,-23.27479 72.1913,-69.82438 c 2.36693,-2.49842 4.99686,-3.74764 7.88976,-3.74764 z m -86.9846,138.66254 c -3.0244,0 -5.52283,-0.92048 -7.49527,-2.76142 -1.84094,-1.97244 -2.76142,-4.40512 -2.76142,-7.29803 V 440.42126 c 0,-2.89291 0.98622,-5.25985 2.95866,-7.10079 1.97244,-1.97244 4.53662,-2.95866 7.69252,-2.95866 3.0244,0 5.45708,0.98622 7.29802,2.95866 1.84094,1.84094 2.76142,4.20788 2.76142,7.10079 v 117.95191 c -0.13149,2.89291 -1.11772,5.32559 -2.95866,7.29803 -1.84094,1.84094 -4.33937,2.76142 -7.49527,2.76142 z"
           id="path348" />
      </g>
      <g
         id="path311"
         style="fill:#0ac5a8;fill-opacity:1">
        <path
           style="color:#000000;-inkscape-font-specification:'Quicksand Semi-Bold';fill:#0ac5a8;fill-opacity:1;stroke:none;-inkscape-stroke:none"
           d="m 686.18708,464.68227 q 4.14212,0 6.90354,2.95866 2.95866,2.76142 2.95866,7.10079 v 51.87517 q 0,20.51337 -11.44015,32.15077 -11.44016,11.44015 -32.34802,11.44015 -20.71062,0 -32.15077,-11.44015 -11.24291,-11.6374 -11.24291,-32.15077 v -51.87517 q 0,-4.33937 2.76141,-7.10079 2.76142,-2.95866 7.10079,-2.95866 4.14212,0 6.90354,2.95866 2.95866,2.76142 2.95866,7.10079 v 51.87517 q 0,12.82086 5.91732,19.13267 6.11456,6.3118 17.75196,6.3118 11.83464,0 17.9492,-6.3118 6.11457,-6.31181 6.11457,-19.13267 v -51.87517 q 0,-4.33937 2.76141,-7.10079 2.76142,-2.95866 7.10079,-2.95866 z"
           id="path352" />
        <path
           style="color:#000000;-inkscape-font-specification:'Quicksand Semi-Bold';fill:#0ac5a8;fill-opacity:1;stroke:none;-inkscape-stroke:none"
           d="m 686.18708,464.68227 c 2.76141,0 5.0626,0.98622 6.90354,2.95866 1.97244,1.84094 2.95866,4.20788 2.95866,7.10079 v 51.87517 c 0,13.67557 -3.81339,24.39251 -11.44015,32.15077 -7.62677,7.62676 -18.40946,11.44015 -32.34802,11.44015 -13.80707,0 -24.52401,-3.81339 -32.15077,-11.44015 -7.49527,-7.75826 -11.24291,-18.4752 -11.24291,-32.15077 v -51.87517 c 0,-2.89291 0.92047,-5.25985 2.76141,-7.10079 1.84094,-1.97244 4.20788,-2.95866 7.10079,-2.95866 2.76141,0 5.0626,0.98622 6.90354,2.95866 1.97244,1.84094 2.95866,4.20788 2.95866,7.10079 v 51.87517 c 0,8.54723 1.97244,14.9248 5.91732,19.13267 4.07637,4.20786 9.9937,6.3118 17.75196,6.3118 7.88975,0 13.87283,-2.10394 17.9492,-6.3118 4.07638,-4.20787 6.11457,-10.58544 6.11457,-19.13267 v -51.87517 c 0,-2.89291 0.92047,-5.25985 2.76141,-7.10079 1.84094,-1.97244 4.20788,-2.95866 7.10079,-2.95866 z"
           id="path354" />
      </g>
      <g
         id="path313"
         style="fill:#0ac5a8;fill-opacity:1">
        <path
           style="color:#000000;-inkscape-font-specification:'Quicksand Semi-Bold';fill:#0ac5a8;fill-opacity:1;stroke:none;-inkscape-stroke:none"
           d="m 776.91919,462.31534 q 14.00432,0 21.69684,5.91732 7.69251,5.72008 10.65117,15.58228 3.15591,9.66496 3.15591,21.69684 v 52.86139 q 0,4.33937 -2.95866,7.29803 -2.76142,2.76142 -6.90354,2.76142 -4.33937,0 -7.10079,-2.76142 -2.76141,-2.95866 -2.76141,-7.29803 v -52.66415 q 0,-7.10078 -1.97244,-12.62361 -1.97244,-5.72008 -6.90354,-9.07323 -4.73386,-3.55039 -13.4126,-3.55039 -8.087,0 -14.20156,3.55039 -6.11457,3.35315 -9.66496,9.07323 -3.35315,5.52283 -3.35315,12.62361 v 52.66415 q 0,4.33937 -2.95866,7.29803 -2.76141,2.76142 -6.90354,2.76142 -4.33937,0 -7.10078,-2.76142 -2.76142,-2.95866 -2.76142,-7.29803 v -83.63145 q 0,-4.33937 2.76142,-7.10079 2.76141,-2.95866 7.10078,-2.95866 4.14213,0 6.90354,2.95866 2.95866,2.76142 2.95866,7.10079 v 11.04566 l -3.55039,1.97244 q 1.38071,-4.33937 4.73386,-8.67874 3.55039,-4.53661 8.48149,-8.28424 4.9311,-3.94488 11.04566,-6.11457 6.11457,-2.36693 13.01811,-2.36693 z"
           id="path358" />
        <path
           style="color:#000000;-inkscape-font-specification:'Quicksand Semi-Bold';fill:#0ac5a8;fill-opacity:1;stroke:none;-inkscape-stroke:none"
           d="m 776.91919,462.31534 c 9.3362,0 16.5685,1.97244 21.69684,5.91732 5.12833,3.81338 8.67873,9.00749 10.65117,15.58228 2.10394,6.4433 3.15591,13.67559 3.15591,21.69684 v 52.86139 c 0,2.89291 -0.98622,5.32559 -2.95866,7.29803 -1.84094,1.84094 -4.14213,2.76142 -6.90354,2.76142 -2.89291,0 -5.25985,-0.92048 -7.10079,-2.76142 -1.84094,-1.97244 -2.76141,-4.40512 -2.76141,-7.29803 v -52.66415 c 0,-4.73385 -0.65748,-8.94173 -1.97244,-12.62361 -1.31496,-3.81338 -3.61614,-6.8378 -6.90354,-9.07323 -3.1559,-2.36692 -7.62678,-3.55039 -13.4126,-3.55039 -5.39133,0 -10.12519,1.18347 -14.20156,3.55039 -4.07638,2.23543 -7.29804,5.25985 -9.66496,9.07323 -2.23543,3.68188 -3.35315,7.88976 -3.35315,12.62361 v 52.66415 c 0,2.89291 -0.98622,5.32559 -2.95866,7.29803 -1.84094,1.84094 -4.14212,2.76142 -6.90354,2.76142 -2.89291,0 -5.25984,-0.92048 -7.10078,-2.76142 -1.84094,-1.97244 -2.76142,-4.40512 -2.76142,-7.29803 v -83.63145 c 0,-2.89291 0.92048,-5.25985 2.76142,-7.10079 1.84094,-1.97244 4.20787,-2.95866 7.10078,-2.95866 2.76142,0 5.0626,0.98622 6.90354,2.95866 1.97244,1.84094 2.95866,4.20788 2.95866,7.10079 v 11.04566 l -3.55039,1.97244 c 0.92047,-2.89291 2.49843,-5.78583 4.73386,-8.67874 2.36692,-3.0244 5.19409,-5.78582 8.48149,-8.28424 3.2874,-2.62992 6.96929,-4.66811 11.04566,-6.11457 4.07638,-1.57795 8.41575,-2.36693 13.01811,-2.36693 z"
           id="path360" />
      </g>
      <g
         id="path315"
         style="fill:#0ac5a8;fill-opacity:1">
        <path
           style="color:#000000;-inkscape-font-specification:'Quicksand Semi-Bold';fill:#0ac5a8;fill-opacity:1;stroke:none;-inkscape-stroke:none"
           d="m 924.85225,422.47205 q 4.33937,0 7.10078,2.76142 2.76142,2.76142 2.76142,7.29803 v 125.84167 q 0,4.33937 -2.76142,7.29803 -2.76141,2.76142 -7.10078,2.76142 -4.14212,0 -7.10078,-2.76142 -2.76142,-2.95866 -2.76142,-7.29803 V 544.1716 l 4.14212,0.19725 q 0,3.55039 -2.95866,8.087 -2.76141,4.33937 -7.69251,8.4815 -4.9311,4.14212 -11.6374,6.90354 -6.70629,2.56417 -14.39881,2.56417 -13.60984,0 -24.45826,-6.90354 -10.84842,-7.10079 -17.16022,-19.13267 -6.31181,-12.22913 -6.31181,-28.00865 0,-15.77952 6.31181,-27.8114 6.3118,-12.22913 16.96298,-19.13267 10.84842,-7.10079 24.06377,-7.10079 8.28425,0 15.38503,2.76142 7.29803,2.76142 12.62362,7.10078 5.32558,4.33937 8.28424,9.27047 2.95866,4.73386 2.95866,9.07323 l -6.11456,0.59173 V 432.5315 q 0,-4.33937 2.76142,-7.10079 2.95866,-2.95866 7.10078,-2.95866 z m -40.23778,129.78656 q 9.46772,0 16.37126,-4.73386 7.10078,-4.73385 11.04566,-12.82086 3.94488,-8.087 3.94488,-18.34369 0,-10.25669 -3.94488,-18.34369 -3.94488,-8.08701 -11.04566,-12.82086 -7.10079,-4.73386 -16.37126,-4.73386 -9.07322,0 -16.174,4.73386 -6.90354,4.73385 -11.04567,12.82086 -3.94488,8.087 -3.94488,18.34369 0,10.25669 3.94488,18.34369 4.14213,8.08701 11.04567,12.82086 7.10078,4.73386 16.174,4.73386 z"
           id="path364" />
        <path
           style="color:#000000;-inkscape-font-specification:'Quicksand Semi-Bold';fill:#0ac5a8;fill-opacity:1;stroke:none;-inkscape-stroke:none"
           d="m 924.85225,422.47205 c 2.89291,0 5.25984,0.92048 7.10078,2.76142 1.84094,1.84094 2.76142,4.27363 2.76142,7.29803 v 125.84167 c 0,2.89291 -0.92048,5.32559 -2.76142,7.29803 -1.84094,1.84094 -4.20787,2.76142 -7.10078,2.76142 -2.76141,0 -5.12834,-0.92048 -7.10078,-2.76142 -1.84094,-1.97244 -2.76142,-4.40512 -2.76142,-7.29803 V 544.1716 l 4.14212,0.19725 c 0,2.36692 -0.98622,5.0626 -2.95866,8.087 -1.84094,2.89291 -4.40511,5.72008 -7.69251,8.4815 -3.2874,2.76141 -7.16654,5.0626 -11.6374,6.90354 -4.47086,1.70944 -9.27047,2.56417 -14.39881,2.56417 -9.07322,0 -17.22599,-2.30118 -24.45826,-6.90354 -7.23227,-4.73386 -12.95236,-11.11142 -17.16022,-19.13267 -4.20787,-8.15275 -6.31181,-17.48898 -6.31181,-28.00865 0,-10.51967 2.10394,-19.79015 6.31181,-27.8114 4.20786,-8.15275 9.8622,-14.53031 16.96298,-19.13267 7.23227,-4.73386 15.25355,-7.10079 24.06377,-7.10079 5.52283,0 10.65118,0.92048 15.38503,2.76142 4.86535,1.84094 9.07323,4.20788 12.62362,7.10078 3.55038,2.89291 6.3118,5.98307 8.28424,9.27047 1.97244,3.1559 2.95866,6.18032 2.95866,9.07323 l -6.11456,0.59173 V 432.5315 c 0,-2.89291 0.92048,-5.25985 2.76142,-7.10079 1.97244,-1.97244 4.33937,-2.95866 7.10078,-2.95866 z m -40.23778,129.78656 c 6.31181,0 11.7689,-1.57796 16.37126,-4.73386 4.73385,-3.1559 8.41574,-7.42953 11.04566,-12.82086 2.62992,-5.39133 3.94488,-11.5059 3.94488,-18.34369 0,-6.83779 -1.31496,-12.95236 -3.94488,-18.34369 -2.62992,-5.39133 -6.31181,-9.66496 -11.04566,-12.82086 -4.73386,-3.1559 -10.19095,-4.73386 -16.37126,-4.73386 -6.04881,0 -11.44015,1.57796 -16.174,4.73386 -4.60236,3.1559 -8.28425,7.42953 -11.04567,12.82086 -2.62992,5.39133 -3.94488,11.5059 -3.94488,18.34369 0,6.83779 1.31496,12.95236 3.94488,18.34369 2.76142,5.39133 6.44331,9.66496 11.04567,12.82086 4.73385,3.1559 10.12519,4.73386 16.174,4.73386 z"
           id="path366" />
      </g>
      <g
         id="path317"
         style="fill:#0ac5a8;fill-opacity:1">
        <path
           style="color:#000000;-inkscape-font-specification:'Quicksand Semi-Bold';fill:#0ac5a8;fill-opacity:1;stroke:none;-inkscape-stroke:none"
           d="m 1010.6535,570.40506 q -16.3713,0 -28.40318,-6.7063 -12.03189,-6.90354 -18.73818,-18.73818 -6.50906,-12.03188 -6.50906,-27.41692 0,-17.35747 6.90354,-29.5866 7.10079,-12.42637 18.3437,-18.93542 11.2429,-6.7063 23.86648,-6.7063 9.665,0 18.3437,3.94488 8.6788,3.74764 15.3851,10.65118 6.9035,6.7063 10.8484,15.97676 3.9449,9.07323 4.1421,19.92165 -0.1972,3.94488 -3.1559,6.50905 -2.9587,2.56417 -6.9035,2.56417 h -76.72795 l -4.73386,-16.76574 h 74.16371 l -3.7476,3.55039 v -4.9311 q -0.3945,-6.90354 -4.5366,-12.03188 -4.1421,-5.32559 -10.2567,-8.087 -6.1146,-2.95866 -12.8209,-2.95866 -5.9173,0 -11.44011,1.97244 -5.32559,1.77519 -9.66496,5.91732 -4.14212,4.14212 -6.70629,11.04566 -2.36693,6.7063 -2.36693,16.76574 0,10.84842 4.53661,18.93542 4.53661,8.08701 12.22913,12.62362 7.69255,4.33937 16.96295,4.33937 7.2981,0 12.0319,-1.38071 4.7339,-1.57795 7.8898,-3.74764 3.1559,-2.16968 5.5228,-4.14212 2.9587,-1.7752 5.9173,-1.7752 3.5504,0 5.9173,2.56418 2.367,2.36692 2.367,5.72007 0,4.33937 -4.3394,7.88976 -5.3256,5.12835 -14.7933,9.07323 -9.2705,3.94488 -19.5271,3.94488 z"
           id="path370" />
        <path
           style="color:#000000;-inkscape-font-specification:'Quicksand Semi-Bold';fill:#0ac5a8;fill-opacity:1;stroke:none;-inkscape-stroke:none"
           d="m 1010.6535,570.40506 c -10.91419,0 -20.38193,-2.23544 -28.40318,-6.7063 -8.02125,-4.60236 -14.26732,-10.84843 -18.73818,-18.73818 -4.33937,-8.02125 -6.50906,-17.16024 -6.50906,-27.41692 0,-11.57164 2.30118,-21.43385 6.90354,-29.5866 4.73386,-8.28424 10.84843,-14.59606 18.3437,-18.93542 7.49526,-4.47086 15.45077,-6.7063 23.86648,-6.7063 6.4433,0 12.5579,1.31496 18.3437,3.94488 5.7859,2.49842 10.9142,6.04882 15.3851,10.65118 4.6023,4.47086 8.2185,9.79646 10.8484,15.97676 2.6299,6.04881 4.0106,12.68938 4.1421,19.92165 -0.1315,2.62992 -1.1834,4.79961 -3.1559,6.50905 -1.9725,1.70944 -4.2736,2.56417 -6.9035,2.56417 h -76.72795 l -4.73386,-16.76574 h 74.16371 l -3.7476,3.55039 v -4.9311 c -0.263,-4.60236 -1.7752,-8.61299 -4.5366,-12.03188 -2.7614,-3.55039 -6.1803,-6.24606 -10.2567,-8.087 -4.0764,-1.97244 -8.35,-2.95866 -12.8209,-2.95866 -3.9449,0 -7.75824,0.65748 -11.44011,1.97244 -3.55039,1.18346 -6.77205,3.1559 -9.66496,5.91732 -2.76141,2.76141 -4.99685,6.4433 -6.70629,11.04566 -1.57795,4.47086 -2.36693,10.05945 -2.36693,16.76574 0,7.23227 1.51221,13.54409 4.53661,18.93542 3.0244,5.39133 7.10079,9.59922 12.22913,12.62362 5.12836,2.89291 10.78265,4.33937 16.96295,4.33937 4.8654,0 8.876,-0.46024 12.0319,-1.38071 3.1559,-1.05197 5.7859,-2.30118 7.8898,-3.74764 2.1039,-1.44645 3.9449,-2.82716 5.5228,-4.14212 1.9725,-1.18347 3.9449,-1.7752 5.9173,-1.7752 2.3669,0 4.3394,0.85473 5.9173,2.56418 1.578,1.57795 2.367,3.48464 2.367,5.72007 0,2.89291 -1.4465,5.52284 -4.3394,7.88976 -3.5504,3.4189 -8.4815,6.44331 -14.7933,9.07323 -6.1803,2.62992 -12.6894,3.94488 -19.5271,3.94488 z"
           id="path372" />
      </g>
    </g>
  </g>
</svg>
